<svg xmlns="http://www.w3.org/2000/svg" width="1280" height="720" viewBox="0 0 1280 720">
  <defs>
    <pattern id="pawDots" width="92" height="72" patternUnits="userSpaceOnUse">
      <circle cx="20" cy="18" r="5" fill="#f0a7b4" opacity="0.32"/>
      <circle cx="33" cy="12" r="3" fill="#f0a7b4" opacity="0.25"/>
      <circle cx="9" cy="12" r="3" fill="#f0a7b4" opacity="0.25"/>
      <circle cx="20" cy="6" r="3" fill="#f0a7b4" opacity="0.25"/>
      <path d="M62 48c11-10 24-10 35 0 3 3 3 8 0 11-13 10-22 10-35 0-3-3-3-8 0-11z" fill="#f3cf73" opacity="0.24"/>
    </pattern>
    <linearGradient id="wallGlow" x1="0" x2="0" y1="0" y2="1">
      <stop offset="0" stop-color="#fff8df"/>
      <stop offset="1" stop-color="#ffdce1"/>
    </linearGradient>
    <linearGradient id="floor" x1="0" x2="0" y1="0" y2="1">
      <stop offset="0" stop-color="#f1c581"/>
      <stop offset="1" stop-color="#d49a5f"/>
    </linearGradient>
  </defs>
  <rect width="1280" height="720" fill="#fff5dd"/>
  <rect y="0" width="1280" height="512" fill="url(#wallGlow)"/>
  <rect y="0" width="1280" height="512" fill="url(#pawDots)"/>
  <rect y="512" width="1280" height="208" fill="url(#floor)"/>
  <rect y="507" width="1280" height="11" fill="#6b4751"/>
  <rect x="322" y="106" width="230" height="238" rx="22" fill="#77b8d0" stroke="#2f2335" stroke-width="8"/>
  <rect x="342" y="126" width="190" height="198" rx="12" fill="#aee0ef"/>
  <path d="M342 240h190M437 126v198" stroke="#2f2335" stroke-width="6"/>
  <circle cx="392" cy="182" r="36" fill="#fff4a6" opacity="0.7"/>
  <path d="M108 516h1064" stroke="#9b633d" stroke-width="4" opacity="0.35"/>
  <path d="M130 575h1020M165 635h960" stroke="#bd7e50" stroke-width="5" opacity="0.32"/>
  <rect x="54" y="116" width="218" height="455" rx="26" fill="#fff7df" opacity="0.76" stroke="#2f2335" stroke-width="6"/>
  <rect x="985" y="92" width="218" height="268" rx="24" fill="#fff7df" opacity="0.62" stroke="#2f2335" stroke-width="6"/>
  <path d="M1028 146h130M1028 207h130M1028 268h130" stroke="#e2a6b3" stroke-width="9" stroke-linecap="round"/>
  <rect x="0" y="0" width="1280" height="720" fill="none" stroke="#2f2335" stroke-width="10" opacity="0.18"/>
</svg>
